# xmcd CD database file
#
# Track frame offsets:
#	150
#	15319
#	34203
#	52785
#	69150
#	85967
#	99679
#	118510
#
# Disc length: 1774 seconds
#
# Revision: 4
# Processed by: cddbd v1.5.2PL0 Copyright (c) Steve Scherf et al.
# Submitted via: CDex 2.21
#
DISCID=5706ec08
DTITLE=Lari White - Old Friends
DYEAR=2017
DGENRE=Country
TTITLE0=Wishes (feat. Suzy Bogguss)
TTITLE1=That's My Baby
TTITLE2=Lead Me Not (feat. Lee Roy Parn
TTITLE3=Now I Know
TTITLE4=That's How You Know
TTITLE5=If You Only Knew
TTITLE6=Eden Before the Fall
TTITLE7=Bare
EXTD=YEAR: 2017
EXTT0=
EXTT1=
EXTT2=
EXTT3=
EXTT4=
EXTT5=
EXTT6=
EXTT7=
PLAYORDER=
